<svg width="560" height="560" xmlns="http://www.w3.org/2000/svg">
    <rect width="100%" height="100%" fill="white"></rect>
<circle cx="20" cy="20" r="3" fill="#333"></circle>
<circle cx="60" cy="20" r="3" fill="#333"></circle>
<circle cx="100" cy="20" r="3" fill="#333"></circle>
<circle cx="140" cy="20" r="3" fill="#333"></circle>
<circle cx="180" cy="20" r="3" fill="#333"></circle>
<circle cx="220" cy="20" r="3" fill="#333"></circle>
<circle cx="260" cy="20" r="3" fill="#333"></circle>
<circle cx="300" cy="20" r="3" fill="#333"></circle>
<circle cx="340" cy="20" r="3" fill="#333"></circle>
<circle cx="380" cy="20" r="3" fill="#333"></circle>
<circle cx="420" cy="20" r="3" fill="#333"></circle>
<circle cx="460" cy="20" r="3" fill="#333"></circle>
<circle cx="500" cy="20" r="3" fill="#333"></circle>
<circle cx="20" cy="60" r="3" fill="#333"></circle>
<circle cx="60" cy="60" r="3" fill="#333"></circle>
<circle cx="100" cy="60" r="3" fill="#333"></circle>
<circle cx="140" cy="60" r="3" fill="#333"></circle>
<circle cx="180" cy="60" r="3" fill="#333"></circle>
<circle cx="220" cy="60" r="3" fill="#333"></circle>
<circle cx="260" cy="60" r="3" fill="#333"></circle>
<circle cx="300" cy="60" r="3" fill="#333"></circle>
<circle cx="340" cy="60" r="3" fill="#333"></circle>
<circle cx="380" cy="60" r="3" fill="#333"></circle>
<circle cx="420" cy="60" r="3" fill="#333"></circle>
<circle cx="460" cy="60" r="3" fill="#333"></circle>
<circle cx="500" cy="60" r="3" fill="#333"></circle>
<circle cx="20" cy="100" r="3" fill="#333"></circle>
<circle cx="60" cy="100" r="3" fill="#333"></circle>
<circle cx="100" cy="100" r="3" fill="#333"></circle>
<circle cx="140" cy="100" r="3" fill="#333"></circle>
<circle cx="180" cy="100" r="3" fill="#333"></circle>
<circle cx="220" cy="100" r="3" fill="#333"></circle>
<circle cx="260" cy="100" r="3" fill="#333"></circle>
<circle cx="300" cy="100" r="3" fill="#333"></circle>
<circle cx="340" cy="100" r="3" fill="#333"></circle>
<circle cx="380" cy="100" r="3" fill="#333"></circle>
<circle cx="420" cy="100" r="3" fill="#333"></circle>
<circle cx="460" cy="100" r="3" fill="#333"></circle>
<circle cx="500" cy="100" r="3" fill="#333"></circle>
<circle cx="20" cy="140" r="3" fill="#333"></circle>
<circle cx="60" cy="140" r="3" fill="#333"></circle>
<circle cx="100" cy="140" r="3" fill="#333"></circle>
<circle cx="140" cy="140" r="3" fill="#333"></circle>
<circle cx="180" cy="140" r="3" fill="#333"></circle>
<circle cx="220" cy="140" r="3" fill="#333"></circle>
<circle cx="260" cy="140" r="3" fill="#333"></circle>
<circle cx="300" cy="140" r="3" fill="#333"></circle>
<circle cx="340" cy="140" r="3" fill="#333"></circle>
<circle cx="380" cy="140" r="3" fill="#333"></circle>
<circle cx="420" cy="140" r="3" fill="#333"></circle>
<circle cx="460" cy="140" r="3" fill="#333"></circle>
<circle cx="500" cy="140" r="3" fill="#333"></circle>
<circle cx="20" cy="180" r="3" fill="#333"></circle>
<circle cx="60" cy="180" r="3" fill="#333"></circle>
<circle cx="100" cy="180" r="3" fill="#333"></circle>
<circle cx="140" cy="180" r="3" fill="#333"></circle>
<circle cx="180" cy="180" r="3" fill="#333"></circle>
<circle cx="220" cy="180" r="3" fill="#333"></circle>
<circle cx="260" cy="180" r="3" fill="#333"></circle>
<circle cx="300" cy="180" r="3" fill="#333"></circle>
<circle cx="340" cy="180" r="3" fill="#333"></circle>
<circle cx="380" cy="180" r="3" fill="#333"></circle>
<circle cx="420" cy="180" r="3" fill="#333"></circle>
<circle cx="460" cy="180" r="3" fill="#333"></circle>
<circle cx="500" cy="180" r="3" fill="#333"></circle>
<circle cx="20" cy="220" r="3" fill="#333"></circle>
<circle cx="60" cy="220" r="3" fill="#333"></circle>
<circle cx="100" cy="220" r="3" fill="#333"></circle>
<circle cx="140" cy="220" r="3" fill="#333"></circle>
<circle cx="180" cy="220" r="3" fill="#333"></circle>
<circle cx="220" cy="220" r="3" fill="#333"></circle>
<circle cx="260" cy="220" r="3" fill="#333"></circle>
<circle cx="300" cy="220" r="3" fill="#333"></circle>
<circle cx="340" cy="220" r="3" fill="#333"></circle>
<circle cx="380" cy="220" r="3" fill="#333"></circle>
<circle cx="420" cy="220" r="3" fill="#333"></circle>
<circle cx="460" cy="220" r="3" fill="#333"></circle>
<circle cx="500" cy="220" r="3" fill="#333"></circle>
<circle cx="20" cy="260" r="3" fill="#333"></circle>
<circle cx="60" cy="260" r="3" fill="#333"></circle>
<circle cx="100" cy="260" r="3" fill="#333"></circle>
<circle cx="140" cy="260" r="3" fill="#333"></circle>
<circle cx="180" cy="260" r="3" fill="#333"></circle>
<circle cx="220" cy="260" r="3" fill="#333"></circle>
<circle cx="260" cy="260" r="3" fill="#333"></circle>
<circle cx="300" cy="260" r="3" fill="#333"></circle>
<circle cx="340" cy="260" r="3" fill="#333"></circle>
<circle cx="380" cy="260" r="3" fill="#333"></circle>
<circle cx="420" cy="260" r="3" fill="#333"></circle>
<circle cx="460" cy="260" r="3" fill="#333"></circle>
<circle cx="500" cy="260" r="3" fill="#333"></circle>
<circle cx="20" cy="300" r="3" fill="#333"></circle>
<circle cx="60" cy="300" r="3" fill="#333"></circle>
<circle cx="100" cy="300" r="3" fill="#333"></circle>
<circle cx="140" cy="300" r="3" fill="#333"></circle>
<circle cx="180" cy="300" r="3" fill="#333"></circle>
<circle cx="220" cy="300" r="3" fill="#333"></circle>
<circle cx="260" cy="300" r="3" fill="#333"></circle>
<circle cx="300" cy="300" r="3" fill="#333"></circle>
<circle cx="340" cy="300" r="3" fill="#333"></circle>
<circle cx="380" cy="300" r="3" fill="#333"></circle>
<circle cx="420" cy="300" r="3" fill="#333"></circle>
<circle cx="460" cy="300" r="3" fill="#333"></circle>
<circle cx="500" cy="300" r="3" fill="#333"></circle>
<circle cx="20" cy="340" r="3" fill="#333"></circle>
<circle cx="60" cy="340" r="3" fill="#333"></circle>
<circle cx="100" cy="340" r="3" fill="#333"></circle>
<circle cx="140" cy="340" r="3" fill="#333"></circle>
<circle cx="180" cy="340" r="3" fill="#333"></circle>
<circle cx="220" cy="340" r="3" fill="#333"></circle>
<circle cx="260" cy="340" r="3" fill="#333"></circle>
<circle cx="300" cy="340" r="3" fill="#333"></circle>
<circle cx="340" cy="340" r="3" fill="#333"></circle>
<circle cx="380" cy="340" r="3" fill="#333"></circle>
<circle cx="420" cy="340" r="3" fill="#333"></circle>
<circle cx="460" cy="340" r="3" fill="#333"></circle>
<circle cx="500" cy="340" r="3" fill="#333"></circle>
<circle cx="20" cy="380" r="3" fill="#333"></circle>
<circle cx="60" cy="380" r="3" fill="#333"></circle>
<circle cx="100" cy="380" r="3" fill="#333"></circle>
<circle cx="140" cy="380" r="3" fill="#333"></circle>
<circle cx="180" cy="380" r="3" fill="#333"></circle>
<circle cx="220" cy="380" r="3" fill="#333"></circle>
<circle cx="260" cy="380" r="3" fill="#333"></circle>
<circle cx="300" cy="380" r="3" fill="#333"></circle>
<circle cx="340" cy="380" r="3" fill="#333"></circle>
<circle cx="380" cy="380" r="3" fill="#333"></circle>
<circle cx="420" cy="380" r="3" fill="#333"></circle>
<circle cx="460" cy="380" r="3" fill="#333"></circle>
<circle cx="500" cy="380" r="3" fill="#333"></circle>
<circle cx="20" cy="420" r="3" fill="#333"></circle>
<circle cx="60" cy="420" r="3" fill="#333"></circle>
<circle cx="100" cy="420" r="3" fill="#333"></circle>
<circle cx="140" cy="420" r="3" fill="#333"></circle>
<circle cx="180" cy="420" r="3" fill="#333"></circle>
<circle cx="220" cy="420" r="3" fill="#333"></circle>
<circle cx="260" cy="420" r="3" fill="#333"></circle>
<circle cx="300" cy="420" r="3" fill="#333"></circle>
<circle cx="340" cy="420" r="3" fill="#333"></circle>
<circle cx="380" cy="420" r="3" fill="#333"></circle>
<circle cx="420" cy="420" r="3" fill="#333"></circle>
<circle cx="460" cy="420" r="3" fill="#333"></circle>
<circle cx="500" cy="420" r="3" fill="#333"></circle>
<circle cx="20" cy="460" r="3" fill="#333"></circle>
<circle cx="60" cy="460" r="3" fill="#333"></circle>
<circle cx="100" cy="460" r="3" fill="#333"></circle>
<circle cx="140" cy="460" r="3" fill="#333"></circle>
<circle cx="180" cy="460" r="3" fill="#333"></circle>
<circle cx="220" cy="460" r="3" fill="#333"></circle>
<circle cx="260" cy="460" r="3" fill="#333"></circle>
<circle cx="300" cy="460" r="3" fill="#333"></circle>
<circle cx="340" cy="460" r="3" fill="#333"></circle>
<circle cx="380" cy="460" r="3" fill="#333"></circle>
<circle cx="420" cy="460" r="3" fill="#333"></circle>
<circle cx="460" cy="460" r="3" fill="#333"></circle>
<circle cx="500" cy="460" r="3" fill="#333"></circle>
<circle cx="20" cy="500" r="3" fill="#333"></circle>
<circle cx="60" cy="500" r="3" fill="#333"></circle>
<circle cx="100" cy="500" r="3" fill="#333"></circle>
<circle cx="140" cy="500" r="3" fill="#333"></circle>
<circle cx="180" cy="500" r="3" fill="#333"></circle>
<circle cx="220" cy="500" r="3" fill="#333"></circle>
<circle cx="260" cy="500" r="3" fill="#333"></circle>
<circle cx="300" cy="500" r="3" fill="#333"></circle>
<circle cx="340" cy="500" r="3" fill="#333"></circle>
<circle cx="380" cy="500" r="3" fill="#333"></circle>
<circle cx="420" cy="500" r="3" fill="#333"></circle>
<circle cx="460" cy="500" r="3" fill="#333"></circle>
<circle cx="500" cy="500" r="3" fill="#333"></circle>

    <path d="M476.0,260.0 L344.7398482268391,276.8558038221935 459.55797902243796,342.6596213908594 331.8389745029399,308.00126813289364 412.73506473629425,412.73506473629425 308.00126813289364,331.8389745029399 342.6596213908594,459.55797902243796 276.8558038221935,344.7398482268391 260.0,476.0 243.14419617780652,344.7398482268391 177.3403786091406,459.55797902243796 211.99873186710636,331.8389745029399 107.26493526370575,412.73506473629425 188.16102549706008,308.00126813289364 60.442020977562066,342.6596213908594 175.26015177316089,276.8558038221935 44.0,260.0 175.26015177316089,243.14419617780652 60.44202097756204,177.34037860914063 188.16102549706008,211.99873186710636 107.2649352637057,107.26493526370575 211.99873186710636,188.16102549706008 177.34037860914066,60.44202097756204 243.1441961778065,175.26015177316089 259.99999999999994,44.0 276.8558038221935,175.26015177316089 342.65962139085946,60.442020977562095 308.0012681328936,188.16102549706005 412.73506473629425,107.2649352637057 331.8389745029399,211.99873186710636 459.55797902243796,177.34037860914066 344.7398482268391,243.14419617780646 Z" fill="none" stroke="#4B0082" stroke-width="2" stroke-linejoin="round"></path>
    <circle cx="497.6" cy="260.0" r="3" fill="#CD5C5C"></circle>
<circle cx="479.5137769246818" cy="350.92558352994536" r="3" fill="#CD5C5C"></circle>
<circle cx="428.00857120992373" cy="428.00857120992373" r="3" fill="#CD5C5C"></circle>
<circle cx="350.92558352994536" cy="479.5137769246818" r="3" fill="#CD5C5C"></circle>
<circle cx="260.0" cy="497.6" r="3" fill="#CD5C5C"></circle>
<circle cx="169.07441647005467" cy="479.5137769246818" r="3" fill="#CD5C5C"></circle>
<circle cx="91.9914287900763" cy="428.00857120992373" r="3" fill="#CD5C5C"></circle>
<circle cx="40.486223075318236" cy="350.92558352994536" r="3" fill="#CD5C5C"></circle>
<circle cx="22.399999999999977" cy="260.00000000000006" r="3" fill="#CD5C5C"></circle>
<circle cx="40.486223075318236" cy="169.0744164700547" r="3" fill="#CD5C5C"></circle>
<circle cx="91.99142879007624" cy="91.9914287900763" r="3" fill="#CD5C5C"></circle>
<circle cx="169.07441647005473" cy="40.486223075318236" r="3" fill="#CD5C5C"></circle>
<circle cx="259.99999999999994" cy="22.399999999999977" r="3" fill="#CD5C5C"></circle>
<circle cx="350.9255835299454" cy="40.486223075318264" r="3" fill="#CD5C5C"></circle>
<circle cx="428.0085712099237" cy="91.99142879007624" r="3" fill="#CD5C5C"></circle>
<circle cx="479.5137769246818" cy="169.0744164700547" r="3" fill="#CD5C5C"></circle>
</svg>