
<svg width="640" height="640" xmlns="http://www.w3.org/2000/svg">
    <rect width="100%" height="100%" fill="white"/>

    <path d="M552.0,300.0 L398.8631562646456,319.66510445922574 532.8176421928442,396.4362249560026 383.8121369200966,356.00147948837594 478.19090885901,478.19090885901 356.00147948837594,383.8121369200966 396.43622495600266,532.8176421928442 319.66510445922574,398.8631562646456 300.0,552.0 280.33489554077426,398.8631562646456 203.5637750439974,532.8176421928442 243.9985205116241,383.8121369200966 121.80909114099003,478.19090885901 216.18786307990342,356.00147948837594 67.18235780715574,396.43622495600266 201.13684373535438,319.66510445922574 48.0,300.00000000000006 201.13684373535438,280.33489554077426 67.18235780715571,203.5637750439974 216.18786307990342,243.9985205116241 121.80909114098998,121.80909114099003 243.9985205116241,216.18786307990342 203.56377504399745,67.18235780715571 280.33489554077426,201.13684373535438 299.99999999999994,48.0 319.66510445922574,201.13684373535438 396.43622495600266,67.18235780715577 356.0014794883759,216.18786307990342 478.19090885900994,121.80909114098998 383.8121369200966,243.9985205116241 532.8176421928442,203.56377504399742 398.8631562646456,280.3348955407742 Z" fill="none" stroke="#4B0082" stroke-width="2" stroke-linejoin="round"/>
    <circle cx="577.2" cy="300.0" r="3" fill="#CD5C5C"/>
<circle cx="556.0994064121287" cy="406.0798474516029" r="3" fill="#CD5C5C"/>
<circle cx="496.00999974491106" cy="496.00999974491106" r="3" fill="#CD5C5C"/>
<circle cx="406.0798474516029" cy="556.0994064121287" r="3" fill="#CD5C5C"/>
<circle cx="300.0" cy="577.2" r="3" fill="#CD5C5C"/>
<circle cx="193.9201525483971" cy="556.0994064121287" r="3" fill="#CD5C5C"/>
<circle cx="103.990000255089" cy="496.00999974491106" r="3" fill="#CD5C5C"/>
<circle cx="43.9005935878713" cy="406.0798474516029" r="3" fill="#CD5C5C"/>
<circle cx="22.799999999999955" cy="300.00000000000006" r="3" fill="#CD5C5C"/>
<circle cx="43.90059358787124" cy="193.92015254839714" r="3" fill="#CD5C5C"/>
<circle cx="103.99000025508894" cy="103.990000255089" r="3" fill="#CD5C5C"/>
<circle cx="193.92015254839717" cy="43.90059358787124" r="3" fill="#CD5C5C"/>
<circle cx="299.99999999999994" cy="22.799999999999955" r="3" fill="#CD5C5C"/>
<circle cx="406.079847451603" cy="43.9005935878713" r="3" fill="#CD5C5C"/>
<circle cx="496.00999974491094" cy="103.99000025508894" r="3" fill="#CD5C5C"/>
<circle cx="556.0994064121287" cy="193.92015254839714" r="3" fill="#CD5C5C"/>
</svg>