<svg width="320" height="320" xmlns="http://www.w3.org/2000/svg">
    <rect width="100%" height="100%" fill="white"></rect>
<circle cx="20" cy="20" r="3" fill="#333"></circle>
<circle cx="60" cy="20" r="3" fill="#333"></circle>
<circle cx="100" cy="20" r="3" fill="#333"></circle>
<circle cx="140" cy="20" r="3" fill="#333"></circle>
<circle cx="180" cy="20" r="3" fill="#333"></circle>
<circle cx="220" cy="20" r="3" fill="#333"></circle>
<circle cx="260" cy="20" r="3" fill="#333"></circle>
<circle cx="20" cy="60" r="3" fill="#333"></circle>
<circle cx="60" cy="60" r="3" fill="#333"></circle>
<circle cx="100" cy="60" r="3" fill="#333"></circle>
<circle cx="140" cy="60" r="3" fill="#333"></circle>
<circle cx="180" cy="60" r="3" fill="#333"></circle>
<circle cx="220" cy="60" r="3" fill="#333"></circle>
<circle cx="260" cy="60" r="3" fill="#333"></circle>
<circle cx="20" cy="100" r="3" fill="#333"></circle>
<circle cx="60" cy="100" r="3" fill="#333"></circle>
<circle cx="100" cy="100" r="3" fill="#333"></circle>
<circle cx="140" cy="100" r="3" fill="#333"></circle>
<circle cx="180" cy="100" r="3" fill="#333"></circle>
<circle cx="220" cy="100" r="3" fill="#333"></circle>
<circle cx="260" cy="100" r="3" fill="#333"></circle>
<circle cx="20" cy="140" r="3" fill="#333"></circle>
<circle cx="60" cy="140" r="3" fill="#333"></circle>
<circle cx="100" cy="140" r="3" fill="#333"></circle>
<circle cx="140" cy="140" r="3" fill="#333"></circle>
<circle cx="180" cy="140" r="3" fill="#333"></circle>
<circle cx="220" cy="140" r="3" fill="#333"></circle>
<circle cx="260" cy="140" r="3" fill="#333"></circle>
<circle cx="20" cy="180" r="3" fill="#333"></circle>
<circle cx="60" cy="180" r="3" fill="#333"></circle>
<circle cx="100" cy="180" r="3" fill="#333"></circle>
<circle cx="140" cy="180" r="3" fill="#333"></circle>
<circle cx="180" cy="180" r="3" fill="#333"></circle>
<circle cx="220" cy="180" r="3" fill="#333"></circle>
<circle cx="260" cy="180" r="3" fill="#333"></circle>
<circle cx="20" cy="220" r="3" fill="#333"></circle>
<circle cx="60" cy="220" r="3" fill="#333"></circle>
<circle cx="100" cy="220" r="3" fill="#333"></circle>
<circle cx="140" cy="220" r="3" fill="#333"></circle>
<circle cx="180" cy="220" r="3" fill="#333"></circle>
<circle cx="220" cy="220" r="3" fill="#333"></circle>
<circle cx="260" cy="220" r="3" fill="#333"></circle>
<circle cx="20" cy="260" r="3" fill="#333"></circle>
<circle cx="60" cy="260" r="3" fill="#333"></circle>
<circle cx="100" cy="260" r="3" fill="#333"></circle>
<circle cx="140" cy="260" r="3" fill="#333"></circle>
<circle cx="180" cy="260" r="3" fill="#333"></circle>
<circle cx="220" cy="260" r="3" fill="#333"></circle>
<circle cx="260" cy="260" r="3" fill="#333"></circle>

    <path d="M140,140 L140,140 L140,140 L140,140 Z" fill="none" stroke="hsl(0, 70%, 50%)" stroke-width="3.5" stroke-linecap="round"></path>
    
    <path d="M100,100 L180,100 L180,180 L100,180 Z" fill="none" stroke="hsl(30, 70%, 50%)" stroke-width="3.0" stroke-linecap="round"></path>
    
    <path d="M60,60 L220,60 L220,220 L60,220 Z" fill="none" stroke="hsl(60, 70%, 50%)" stroke-width="2.5" stroke-linecap="round"></path>
    </svg>