
<svg width="480" height="480" xmlns="http://www.w3.org/2000/svg">
    <rect width="100%" height="100%" fill="white"/>

    <path d="M220,220 Q397.38487024216704,293.4752190140972 348.0,220.0" 
          fill="none" stroke="hsl(0, 70%, 50%)" stroke-width="2" 
          stroke-linecap="round" stroke-linejoin="round"/>
    <path d="M220,220 Q397.38487024216704,293.4752190140972 310.5096679918781,310.5096679918781" 
          fill="none" stroke="hsl(0, 70%, 50%)" stroke-width="2" 
          stroke-linecap="round" stroke-linejoin="round"/>
    
    <path d="M220,220 Q293.47521901409726,397.38487024216704 310.5096679918781,310.5096679918781" 
          fill="none" stroke="hsl(45, 70%, 50%)" stroke-width="2" 
          stroke-linecap="round" stroke-linejoin="round"/>
    <path d="M220,220 Q293.47521901409726,397.38487024216704 220.0,348.0" 
          fill="none" stroke="hsl(45, 70%, 50%)" stroke-width="2" 
          stroke-linecap="round" stroke-linejoin="round"/>
    
    <path d="M220,220 Q146.52478098590277,397.38487024216704 220.0,348.0" 
          fill="none" stroke="hsl(90, 70%, 50%)" stroke-width="2" 
          stroke-linecap="round" stroke-linejoin="round"/>
    <path d="M220,220 Q146.52478098590277,397.38487024216704 129.49033200812192,310.5096679918781" 
          fill="none" stroke="hsl(90, 70%, 50%)" stroke-width="2" 
          stroke-linecap="round" stroke-linejoin="round"/>
    
    <path d="M220,220 Q42.61512975783296,293.47521901409726 129.49033200812192,310.5096679918781" 
          fill="none" stroke="hsl(135, 70%, 50%)" stroke-width="2" 
          stroke-linecap="round" stroke-linejoin="round"/>
    <path d="M220,220 Q42.61512975783296,293.47521901409726 92.0,220.00000000000003" 
          fill="none" stroke="hsl(135, 70%, 50%)" stroke-width="2" 
          stroke-linecap="round" stroke-linejoin="round"/>
    
    <path d="M220,220 Q42.61512975783293,146.5247809859028 92.0,220.00000000000003" 
          fill="none" stroke="hsl(180, 70%, 50%)" stroke-width="2" 
          stroke-linecap="round" stroke-linejoin="round"/>
    <path d="M220,220 Q42.61512975783293,146.5247809859028 129.4903320081219,129.49033200812192" 
          fill="none" stroke="hsl(180, 70%, 50%)" stroke-width="2" 
          stroke-linecap="round" stroke-linejoin="round"/>
    
    <path d="M220,220 Q146.52478098590265,42.61512975783299 129.4903320081219,129.49033200812192" 
          fill="none" stroke="hsl(225, 70%, 50%)" stroke-width="2" 
          stroke-linecap="round" stroke-linejoin="round"/>
    <path d="M220,220 Q146.52478098590265,42.61512975783299 219.99999999999997,92.0" 
          fill="none" stroke="hsl(225, 70%, 50%)" stroke-width="2" 
          stroke-linecap="round" stroke-linejoin="round"/>
    
    <path d="M220,220 Q293.47521901409726,42.61512975783296 219.99999999999997,92.0" 
          fill="none" stroke="hsl(270, 70%, 50%)" stroke-width="2" 
          stroke-linecap="round" stroke-linejoin="round"/>
    <path d="M220,220 Q293.47521901409726,42.61512975783296 310.5096679918781,129.4903320081219" 
          fill="none" stroke="hsl(270, 70%, 50%)" stroke-width="2" 
          stroke-linecap="round" stroke-linejoin="round"/>
    
    <path d="M220,220 Q397.38487024216704,146.52478098590265 310.5096679918781,129.4903320081219" 
          fill="none" stroke="hsl(315, 70%, 50%)" stroke-width="2" 
          stroke-linecap="round" stroke-linejoin="round"/>
    <path d="M220,220 Q397.38487024216704,146.52478098590265 348.0,219.99999999999997" 
          fill="none" stroke="hsl(315, 70%, 50%)" stroke-width="2" 
          stroke-linecap="round" stroke-linejoin="round"/>
    </svg>